<svg width="134" height="40" viewBox="0 0 134 40" fill="none" xmlns="http://www.w3.org/2000/svg">
<g filter="url(#filter0_dd_1019_33137)">
<g filter="url(#filter1_ddiii_1019_33137)">
<path d="M3 14.8C3 10.3196 3 8.07937 3.87195 6.36808C4.63893 4.86278 5.86278 3.63893 7.36808 2.87195C9.07937 2 11.3196 2 15.8 2H22.2C26.6804 2 28.9206 2 30.6319 2.87195C32.1372 3.63893 33.3611 4.86278 34.1281 6.36808C35 8.07937 35 10.3196 35 14.8V21.2C35 25.6804 35 27.9206 34.1281 29.6319C33.3611 31.1372 32.1372 32.3611 30.6319 33.1281C28.9206 34 26.6804 34 22.2 34H15.8C11.3196 34 9.07937 34 7.36808 33.1281C5.86278 32.3611 4.63893 31.1372 3.87195 29.6319C3 27.9206 3 25.6804 3 21.2V14.8Z" fill="#E93D82"/>
<path d="M3.75 14.8C3.75 12.5474 3.75058 10.9031 3.8565 9.60669C3.96171 8.31905 4.16708 7.44087 4.5402 6.70857C5.23528 5.34439 6.34439 4.23528 7.70857 3.5402C8.44087 3.16708 9.31905 2.96171 10.6067 2.8565C11.9031 2.75058 13.5474 2.75 15.8 2.75H22.2C24.4526 2.75 26.0969 2.75058 27.3933 2.8565C28.6809 2.96171 29.5591 3.16708 30.2914 3.5402C31.6556 4.23528 32.7647 5.34439 33.4598 6.70857C33.8329 7.44087 34.0383 8.31905 34.1435 9.60669C34.2494 10.9031 34.25 12.5474 34.25 14.8V21.2C34.25 23.4526 34.2494 25.0969 34.1435 26.3933C34.0383 27.6809 33.8329 28.5591 33.4598 29.2914C32.7647 30.6556 31.6556 31.7647 30.2914 32.4598C29.5591 32.8329 28.6809 33.0383 27.3933 33.1435C26.0969 33.2494 24.4526 33.25 22.2 33.25H15.8C13.5474 33.25 11.9031 33.2494 10.6067 33.1435C9.31905 33.0383 8.44087 32.8329 7.70857 32.4598C6.34439 31.7647 5.23528 30.6556 4.5402 29.2914C4.16708 28.5591 3.96171 27.6809 3.8565 26.3933C3.75058 25.0969 3.75 23.4526 3.75 21.2V14.8Z" stroke="url(#paint0_linear_1019_33137)" stroke-width="1.5"/>
<path opacity="0.6" d="M17.4 20.4003H19.8C21.125 20.4003 22.2 19.3253 22.2 18.0003V14.8003H25.4C26.2825 14.8003 27 15.5178 27 16.4003V21.2003C27 22.0828 26.2825 22.8003 25.4 22.8003H24.6V24.0003C24.6 24.1528 24.515 24.2903 24.38 24.3578C24.245 24.4253 24.0825 24.4103 23.96 24.3203L21.9325 22.8003H19C18.1175 22.8003 17.4 22.0828 17.4 21.2003V20.4003Z" fill="url(#paint1_linear_1019_33137)"/>
<path d="M11 13.2003C11 12.3178 11.7175 11.6003 12.6 11.6003H19.8C20.6825 11.6003 21.4 12.3178 21.4 13.2003V18.0003C21.4 18.8828 20.6825 19.6003 19.8 19.6003H16.0675L14.04 21.1203C13.92 21.2103 13.7575 21.2253 13.62 21.1578C13.4825 21.0903 13.4 20.9528 13.4 20.8003V19.6003H12.6C11.7175 19.6003 11 18.8828 11 18.0003V13.2003Z" fill="url(#paint2_linear_1019_33137)"/>
</g>
</g>
<path d="M46.2642 25.5V10.9545H56.0653V13.4901H49.3395V16.956H55.5611V19.4915H49.3395V22.9645H56.0938V25.5H46.2642ZM67.7302 17.7017L64.9603 17.8722C64.9129 17.6354 64.8112 17.4223 64.6549 17.233C64.4987 17.0388 64.2927 16.8849 64.037 16.7713C63.7861 16.6529 63.4854 16.5938 63.135 16.5938C62.6663 16.5938 62.2709 16.6932 61.9489 16.892C61.627 17.0862 61.466 17.3466 61.466 17.6733C61.466 17.9337 61.5701 18.1539 61.7785 18.3338C61.9868 18.5137 62.3443 18.6581 62.8509 18.767L64.8254 19.1648C65.886 19.3826 66.6767 19.733 67.1975 20.2159C67.7183 20.6989 67.9788 21.3333 67.9788 22.1193C67.9788 22.8343 67.7681 23.4616 67.3467 24.0014C66.93 24.5412 66.3571 24.9626 65.6279 25.2656C64.9035 25.5639 64.0678 25.7131 63.1208 25.7131C61.6767 25.7131 60.5261 25.4124 59.6691 24.8111C58.8168 24.205 58.3173 23.3812 58.1705 22.3395L61.1464 22.1832C61.2363 22.6236 61.4541 22.9598 61.7998 23.1918C62.1454 23.419 62.5881 23.5327 63.1279 23.5327C63.6582 23.5327 64.0844 23.4309 64.4063 23.2273C64.733 23.0189 64.8987 22.7514 64.9035 22.4247C64.8987 22.1501 64.7827 21.9252 64.5555 21.75C64.3282 21.5701 63.9778 21.4328 63.5043 21.3381L61.6151 20.9616C60.5498 20.7486 59.7567 20.3793 59.2359 19.8537C58.7198 19.3281 58.4617 18.6581 58.4617 17.8438C58.4617 17.143 58.6511 16.5393 59.0299 16.0327C59.4134 15.526 59.9508 15.1354 60.6421 14.8608C61.3381 14.5862 62.1525 14.4489 63.0853 14.4489C64.4631 14.4489 65.5474 14.7401 66.3381 15.3224C67.1336 15.9048 67.5976 16.6979 67.7302 17.7017ZM75.0129 25.7131C73.8955 25.7131 72.9343 25.4763 72.1294 25.0028C71.3292 24.5246 70.7137 23.8617 70.2828 23.0142C69.8567 22.1667 69.6436 21.1913 69.6436 20.0881C69.6436 18.9706 69.859 17.9905 70.2899 17.1477C70.7255 16.3002 71.3434 15.6397 72.1436 15.1662C72.9438 14.688 73.8955 14.4489 74.9987 14.4489C75.9504 14.4489 76.7838 14.6217 77.4987 14.9673C78.2137 15.313 78.7795 15.7983 79.1962 16.4233C79.6128 17.0483 79.8425 17.7822 79.8851 18.625H77.03C76.9495 18.0805 76.7364 17.6425 76.3908 17.3111C76.0499 16.9749 75.6024 16.8068 75.0484 16.8068C74.5797 16.8068 74.1701 16.9347 73.8197 17.1903C73.4741 17.4413 73.2042 17.8082 73.0101 18.2912C72.816 18.7741 72.7189 19.3589 72.7189 20.0455C72.7189 20.7415 72.8136 21.3333 73.003 21.821C73.1971 22.3087 73.4694 22.6804 73.8197 22.9361C74.1701 23.1918 74.5797 23.3196 75.0484 23.3196C75.3941 23.3196 75.7042 23.2486 75.9788 23.1065C76.2582 22.9645 76.4878 22.7585 76.6678 22.4886C76.8524 22.214 76.9732 21.8849 77.03 21.5014H79.8851C79.8377 22.3348 79.6105 23.0687 79.2033 23.7031C78.8008 24.3329 78.2445 24.8253 77.5342 25.1804C76.824 25.5355 75.9836 25.7131 75.0129 25.7131ZM89.018 20.8551V14.5909H92.0435V25.5H89.1387V23.5185H89.0251C88.7789 24.1577 88.3693 24.6714 87.7964 25.0597C87.2282 25.4479 86.5345 25.642 85.7154 25.642C84.9862 25.642 84.3447 25.4763 83.7907 25.1449C83.2367 24.8134 82.8035 24.3423 82.491 23.7315C82.1832 23.1207 82.027 22.3892 82.0222 21.5369V14.5909H85.0478V20.9972C85.0525 21.6411 85.2254 22.1501 85.5663 22.5241C85.9072 22.8982 86.3641 23.0852 86.937 23.0852C87.3016 23.0852 87.6425 23.0024 87.9597 22.8366C88.277 22.6662 88.5326 22.4152 88.7268 22.0838C88.9256 21.7524 89.0227 21.3428 89.018 20.8551ZM100.466 14.5909V16.8636H93.8966V14.5909H100.466ZM95.3881 11.9773H98.4136V22.1477C98.4136 22.4271 98.4562 22.6449 98.5415 22.8011C98.6267 22.9527 98.7451 23.0592 98.8966 23.1207C99.0528 23.1823 99.2328 23.2131 99.4364 23.2131C99.5784 23.2131 99.7205 23.2012 99.8625 23.1776C100.005 23.1491 100.113 23.1278 100.189 23.1136L100.665 25.3651C100.514 25.4124 100.3 25.4669 100.026 25.5284C99.7512 25.5947 99.4174 25.6349 99.0244 25.6491C98.2953 25.6776 97.6561 25.5805 97.1068 25.358C96.5623 25.1354 96.1385 24.7898 95.8355 24.321C95.5325 23.8523 95.3833 23.2604 95.3881 22.5455V11.9773ZM105.748 25.706C105.052 25.706 104.432 25.5852 103.887 25.3438C103.343 25.0975 102.912 24.7353 102.594 24.2571C102.282 23.7741 102.126 23.1728 102.126 22.4531C102.126 21.8471 102.237 21.3381 102.46 20.9261C102.682 20.5142 102.985 20.1828 103.369 19.9318C103.752 19.6809 104.188 19.4915 104.675 19.3636C105.168 19.2358 105.684 19.1458 106.224 19.0938C106.858 19.0275 107.37 18.9659 107.758 18.9091C108.146 18.8475 108.428 18.7576 108.603 18.6392C108.778 18.5208 108.866 18.3456 108.866 18.1136V18.071C108.866 17.6212 108.724 17.2732 108.44 17.027C108.16 16.7808 107.763 16.6577 107.246 16.6577C106.702 16.6577 106.269 16.7784 105.947 17.0199C105.625 17.2566 105.412 17.5549 105.308 17.9148L102.509 17.6875C102.651 17.0246 102.931 16.4517 103.347 15.9688C103.764 15.4811 104.301 15.107 104.96 14.8466C105.622 14.5814 106.389 14.4489 107.261 14.4489C107.867 14.4489 108.447 14.5199 109.001 14.6619C109.559 14.804 110.054 15.0241 110.485 15.3224C110.921 15.6207 111.264 16.0043 111.515 16.473C111.766 16.937 111.891 17.4934 111.891 18.142V25.5H109.022V23.9872H108.937C108.762 24.3281 108.527 24.6288 108.234 24.8892C107.94 25.1449 107.587 25.3461 107.175 25.4929C106.763 25.6349 106.288 25.706 105.748 25.706ZM106.614 23.6179C107.059 23.6179 107.452 23.5303 107.793 23.3551C108.134 23.1752 108.402 22.9337 108.596 22.6307C108.79 22.3277 108.887 21.9844 108.887 21.6009V20.4432C108.792 20.5047 108.662 20.5616 108.496 20.6136C108.335 20.661 108.153 20.706 107.95 20.7486C107.746 20.7865 107.542 20.822 107.339 20.8551C107.135 20.8835 106.951 20.9096 106.785 20.9332C106.43 20.9853 106.12 21.0682 105.854 21.1818C105.589 21.2955 105.383 21.4493 105.237 21.6435C105.09 21.8329 105.016 22.0696 105.016 22.3537C105.016 22.7656 105.165 23.0805 105.464 23.2983C105.767 23.5114 106.15 23.6179 106.614 23.6179ZM117.003 25.5H113.707L118.728 10.9545H122.691L127.706 25.5H124.41L120.767 14.2784H120.653L117.003 25.5ZM116.797 19.7827H124.581V22.1832H116.797V19.7827ZM132.732 10.9545V25.5H129.656V10.9545H132.732Z" fill="#202020"/>
<defs>
<filter id="filter0_dd_1019_33137" x="0" y="0" width="38" height="38" filterUnits="userSpaceOnUse" color-interpolation-filters="sRGB">
<feFlood flood-opacity="0" result="BackgroundImageFix"/>
<feColorMatrix in="SourceAlpha" type="matrix" values="0 0 0 0 0 0 0 0 0 0 0 0 0 0 0 0 0 0 127 0" result="hardAlpha"/>
<feOffset dy="1"/>
<feGaussianBlur stdDeviation="1"/>
<feColorMatrix type="matrix" values="0 0 0 0 0.0627451 0 0 0 0 0.0941176 0 0 0 0 0.156863 0 0 0 0.06 0"/>
<feBlend mode="normal" in2="BackgroundImageFix" result="effect1_dropShadow_1019_33137"/>
<feColorMatrix in="SourceAlpha" type="matrix" values="0 0 0 0 0 0 0 0 0 0 0 0 0 0 0 0 0 0 127 0" result="hardAlpha"/>
<feOffset dy="1"/>
<feGaussianBlur stdDeviation="1.5"/>
<feColorMatrix type="matrix" values="0 0 0 0 0.0627451 0 0 0 0 0.0941176 0 0 0 0 0.156863 0 0 0 0.1 0"/>
<feBlend mode="normal" in2="effect1_dropShadow_1019_33137" result="effect2_dropShadow_1019_33137"/>
<feBlend mode="normal" in="SourceGraphic" in2="effect2_dropShadow_1019_33137" result="shape"/>
</filter>
<filter id="filter1_ddiii_1019_33137" x="0" y="-1" width="38" height="41" filterUnits="userSpaceOnUse" color-interpolation-filters="sRGB">
<feFlood flood-opacity="0" result="BackgroundImageFix"/>
<feColorMatrix in="SourceAlpha" type="matrix" values="0 0 0 0 0 0 0 0 0 0 0 0 0 0 0 0 0 0 127 0" result="hardAlpha"/>
<feOffset dy="1"/>
<feGaussianBlur stdDeviation="0.5"/>
<feComposite in2="hardAlpha" operator="out"/>
<feColorMatrix type="matrix" values="0 0 0 0 0.913725 0 0 0 0 0.239216 0 0 0 0 0.509804 0 0 0 0.08 0"/>
<feBlend mode="normal" in2="BackgroundImageFix" result="effect1_dropShadow_1019_33137"/>
<feColorMatrix in="SourceAlpha" type="matrix" values="0 0 0 0 0 0 0 0 0 0 0 0 0 0 0 0 0 0 127 0" result="hardAlpha"/>
<feMorphology radius="1" operator="erode" in="SourceAlpha" result="effect2_dropShadow_1019_33137"/>
<feOffset dy="3"/>
<feGaussianBlur stdDeviation="2"/>
<feComposite in2="hardAlpha" operator="out"/>
<feColorMatrix type="matrix" values="0 0 0 0 0.913725 0 0 0 0 0.239216 0 0 0 0 0.509804 0 0 0 0.14 0"/>
<feBlend mode="normal" in2="effect1_dropShadow_1019_33137" result="effect2_dropShadow_1019_33137"/>
<feBlend mode="normal" in="SourceGraphic" in2="effect2_dropShadow_1019_33137" result="shape"/>
<feColorMatrix in="SourceAlpha" type="matrix" values="0 0 0 0 0 0 0 0 0 0 0 0 0 0 0 0 0 0 127 0" result="hardAlpha"/>
<feOffset dy="-3"/>
<feGaussianBlur stdDeviation="1.5"/>
<feComposite in2="hardAlpha" operator="arithmetic" k2="-1" k3="1"/>
<feColorMatrix type="matrix" values="0 0 0 0 0.913725 0 0 0 0 0.239216 0 0 0 0 0.509804 0 0 0 0.1 0"/>
<feBlend mode="normal" in2="shape" result="effect3_innerShadow_1019_33137"/>
<feColorMatrix in="SourceAlpha" type="matrix" values="0 0 0 0 0 0 0 0 0 0 0 0 0 0 0 0 0 0 127 0" result="hardAlpha"/>
<feOffset dy="3"/>
<feGaussianBlur stdDeviation="1.5"/>
<feComposite in2="hardAlpha" operator="arithmetic" k2="-1" k3="1"/>
<feColorMatrix type="matrix" values="0 0 0 0 1 0 0 0 0 1 0 0 0 0 1 0 0 0 0.1 0"/>
<feBlend mode="normal" in2="effect3_innerShadow_1019_33137" result="effect4_innerShadow_1019_33137"/>
<feColorMatrix in="SourceAlpha" type="matrix" values="0 0 0 0 0 0 0 0 0 0 0 0 0 0 0 0 0 0 127 0" result="hardAlpha"/>
<feMorphology radius="1" operator="erode" in="SourceAlpha" result="effect5_innerShadow_1019_33137"/>
<feOffset/>
<feComposite in2="hardAlpha" operator="arithmetic" k2="-1" k3="1"/>
<feColorMatrix type="matrix" values="0 0 0 0 0.913725 0 0 0 0 0.239216 0 0 0 0 0.509804 0 0 0 0.24 0"/>
<feBlend mode="normal" in2="effect4_innerShadow_1019_33137" result="effect5_innerShadow_1019_33137"/>
</filter>
<linearGradient id="paint0_linear_1019_33137" x1="19" y1="2" x2="19" y2="34" gradientUnits="userSpaceOnUse">
<stop stop-color="white" stop-opacity="0.12"/>
<stop offset="1" stop-color="white" stop-opacity="0"/>
</linearGradient>
<linearGradient id="paint1_linear_1019_33137" x1="22.2" y1="14.8003" x2="22.2" y2="24.3997" gradientUnits="userSpaceOnUse">
<stop stop-color="white" stop-opacity="0.9"/>
<stop offset="1" stop-color="white" stop-opacity="0.7"/>
</linearGradient>
<linearGradient id="paint2_linear_1019_33137" x1="16.2" y1="11.6003" x2="16.2" y2="21.1997" gradientUnits="userSpaceOnUse">
<stop stop-color="white"/>
<stop offset="1" stop-color="white" stop-opacity="0.7"/>
</linearGradient>
</defs>
</svg>
