<svg width="131" height="32" viewBox="0 0 131 32" fill="none" xmlns="http://www.w3.org/2000/svg">
<path d="M12.8 0.75H19.2C21.4526 0.75 23.0969 0.750583 24.3933 0.856503C25.6809 0.961707 26.5591 1.16708 27.2914 1.5402C28.6556 2.23528 29.7647 3.34439 30.4598 4.70857C30.8329 5.44087 31.0383 6.31905 31.1435 7.60669C31.2494 8.90308 31.25 10.5474 31.25 12.8V19.2C31.25 21.4526 31.2494 23.0969 31.1435 24.3933C31.0383 25.6809 30.8329 26.5591 30.4598 27.2914C29.7647 28.6556 28.6556 29.7647 27.2914 30.4598C26.5591 30.8329 25.6809 31.0383 24.3933 31.1435C23.0969 31.2494 21.4526 31.25 19.2 31.25H12.8C10.5474 31.25 8.90308 31.2494 7.60669 31.1435C6.31905 31.0383 5.44087 30.8329 4.70857 30.4598C3.34439 29.7647 2.23528 28.6556 1.5402 27.2914C1.16708 26.5591 0.961707 25.6809 0.856503 24.3933C0.750583 23.0969 0.75 21.4526 0.75 19.2V12.8C0.75 10.5474 0.750583 8.90308 0.856503 7.60669C0.961707 6.31905 1.16708 5.44087 1.5402 4.70857C2.23528 3.34439 3.34439 2.23528 4.70857 1.5402C5.44087 1.16708 6.31905 0.961707 7.60669 0.856503C8.90308 0.750583 10.5474 0.75 12.8 0.75Z" fill="#E93D82"/>
<path d="M12.8 0.75H19.2C21.4526 0.75 23.0969 0.750583 24.3933 0.856503C25.6809 0.961707 26.5591 1.16708 27.2914 1.5402C28.6556 2.23528 29.7647 3.34439 30.4598 4.70857C30.8329 5.44087 31.0383 6.31905 31.1435 7.60669C31.2494 8.90308 31.25 10.5474 31.25 12.8V19.2C31.25 21.4526 31.2494 23.0969 31.1435 24.3933C31.0383 25.6809 30.8329 26.5591 30.4598 27.2914C29.7647 28.6556 28.6556 29.7647 27.2914 30.4598C26.5591 30.8329 25.6809 31.0383 24.3933 31.1435C23.0969 31.2494 21.4526 31.25 19.2 31.25H12.8C10.5474 31.25 8.90308 31.2494 7.60669 31.1435C6.31905 31.0383 5.44087 30.8329 4.70857 30.4598C3.34439 29.7647 2.23528 28.6556 1.5402 27.2914C1.16708 26.5591 0.961707 25.6809 0.856503 24.3933C0.750583 23.0969 0.75 21.4526 0.75 19.2V12.8C0.75 10.5474 0.750583 8.90308 0.856503 7.60669C0.961707 6.31905 1.16708 5.44087 1.5402 4.70857C2.23528 3.34439 3.34439 2.23528 4.70857 1.5402C5.44087 1.16708 6.31905 0.961707 7.60669 0.856503C8.90308 0.750583 10.5474 0.75 12.8 0.75Z" stroke="url(#paint0_linear_8007_2812)" stroke-width="1.5"/>
<path opacity="0.8" d="M14.4 18.4003H16.8C18.125 18.4003 19.2 17.3253 19.2 16.0003V12.8003H22.4C23.2825 12.8003 24 13.5178 24 14.4003V19.2003C24 20.0828 23.2825 20.8003 22.4 20.8003H21.6V22.0003C21.6 22.1528 21.515 22.2903 21.38 22.3578C21.245 22.4253 21.0825 22.4103 20.96 22.3203L18.9325 20.8003H16C15.1175 20.8003 14.4 20.0828 14.4 19.2003V18.4003Z" fill="url(#paint1_linear_8007_2812)"/>
<path d="M8 11.2003C8 10.3178 8.7175 9.60028 9.6 9.60028H16.8C17.6825 9.60028 18.4 10.3178 18.4 11.2003V16.0003C18.4 16.8828 17.6825 17.6003 16.8 17.6003H13.0675L11.04 19.1203C10.92 19.2103 10.7575 19.2253 10.62 19.1578C10.4825 19.0903 10.4 18.9528 10.4 18.8003V17.6003H9.6C8.7175 17.6003 8 16.8828 8 16.0003V11.2003Z" fill="url(#paint2_linear_8007_2812)"/>
<path d="M43.2642 23V8.45455H53.0653V10.9901H46.3395V14.456H52.5611V16.9915H46.3395V20.4645H53.0938V23H43.2642ZM64.7302 15.2017L61.9603 15.3722C61.9129 15.1354 61.8112 14.9223 61.6549 14.733C61.4987 14.5388 61.2927 14.3849 61.037 14.2713C60.7861 14.1529 60.4854 14.0938 60.135 14.0938C59.6663 14.0938 59.2709 14.1932 58.9489 14.392C58.627 14.5862 58.466 14.8466 58.466 15.1733C58.466 15.4337 58.5701 15.6539 58.7785 15.8338C58.9868 16.0137 59.3443 16.1581 59.8509 16.267L61.8254 16.6648C62.886 16.8826 63.6767 17.233 64.1975 17.7159C64.7183 18.1989 64.9788 18.8333 64.9788 19.6193C64.9788 20.3343 64.7681 20.9616 64.3467 21.5014C63.93 22.0412 63.3571 22.4626 62.6279 22.7656C61.9035 23.0639 61.0678 23.2131 60.1208 23.2131C58.6767 23.2131 57.5261 22.9124 56.6691 22.3111C55.8168 21.705 55.3173 20.8812 55.1705 19.8395L58.1464 19.6832C58.2363 20.1236 58.4541 20.4598 58.7998 20.6918C59.1454 20.919 59.5881 21.0327 60.1279 21.0327C60.6582 21.0327 61.0844 20.9309 61.4063 20.7273C61.733 20.5189 61.8987 20.2514 61.9035 19.9247C61.8987 19.6501 61.7827 19.4252 61.5555 19.25C61.3282 19.0701 60.9778 18.9328 60.5043 18.8381L58.6151 18.4616C57.5498 18.2486 56.7567 17.8793 56.2359 17.3537C55.7198 16.8281 55.4617 16.1581 55.4617 15.3438C55.4617 14.643 55.6511 14.0393 56.0299 13.5327C56.4134 13.026 56.9508 12.6354 57.6421 12.3608C58.3381 12.0862 59.1525 11.9489 60.0853 11.9489C61.4631 11.9489 62.5474 12.2401 63.3381 12.8224C64.1336 13.4048 64.5976 14.1979 64.7302 15.2017ZM72.0129 23.2131C70.8955 23.2131 69.9343 22.9763 69.1294 22.5028C68.3292 22.0246 67.7137 21.3617 67.2828 20.5142C66.8567 19.6667 66.6436 18.6913 66.6436 17.5881C66.6436 16.4706 66.859 15.4905 67.2899 14.6477C67.7255 13.8002 68.3434 13.1397 69.1436 12.6662C69.9438 12.188 70.8955 11.9489 71.9987 11.9489C72.9504 11.9489 73.7838 12.1217 74.4987 12.4673C75.2137 12.813 75.7795 13.2983 76.1962 13.9233C76.6128 14.5483 76.8425 15.2822 76.8851 16.125H74.03C73.9495 15.5805 73.7364 15.1425 73.3908 14.8111C73.0499 14.4749 72.6024 14.3068 72.0484 14.3068C71.5797 14.3068 71.1701 14.4347 70.8197 14.6903C70.4741 14.9413 70.2042 15.3082 70.0101 15.7912C69.816 16.2741 69.7189 16.8589 69.7189 17.5455C69.7189 18.2415 69.8136 18.8333 70.003 19.321C70.1971 19.8087 70.4694 20.1804 70.8197 20.4361C71.1701 20.6918 71.5797 20.8196 72.0484 20.8196C72.3941 20.8196 72.7042 20.7486 72.9788 20.6065C73.2582 20.4645 73.4878 20.2585 73.6678 19.9886C73.8524 19.714 73.9732 19.3849 74.03 19.0014H76.8851C76.8377 19.8348 76.6105 20.5687 76.2033 21.2031C75.8008 21.8329 75.2445 22.3253 74.5342 22.6804C73.824 23.0355 72.9836 23.2131 72.0129 23.2131ZM86.018 18.3551V12.0909H89.0435V23H86.1387V21.0185H86.0251C85.7789 21.6577 85.3693 22.1714 84.7964 22.5597C84.2282 22.9479 83.5345 23.142 82.7154 23.142C81.9862 23.142 81.3447 22.9763 80.7907 22.6449C80.2367 22.3134 79.8035 21.8423 79.491 21.2315C79.1832 20.6207 79.027 19.8892 79.0222 19.0369V12.0909H82.0478V18.4972C82.0525 19.1411 82.2254 19.6501 82.5663 20.0241C82.9072 20.3982 83.3641 20.5852 83.937 20.5852C84.3016 20.5852 84.6425 20.5024 84.9597 20.3366C85.277 20.1662 85.5326 19.9152 85.7268 19.5838C85.9256 19.2524 86.0227 18.8428 86.018 18.3551ZM97.4662 12.0909V14.3636H90.8966V12.0909H97.4662ZM92.3881 9.47727H95.4136V19.6477C95.4136 19.9271 95.4562 20.1449 95.5415 20.3011C95.6267 20.4527 95.7451 20.5592 95.8966 20.6207C96.0528 20.6823 96.2328 20.7131 96.4364 20.7131C96.5784 20.7131 96.7205 20.7012 96.8625 20.6776C97.0045 20.6491 97.1134 20.6278 97.1892 20.6136L97.6651 22.8651C97.5135 22.9124 97.3005 22.9669 97.0259 23.0284C96.7512 23.0947 96.4174 23.1349 96.0244 23.1491C95.2953 23.1776 94.6561 23.0805 94.1068 22.858C93.5623 22.6354 93.1385 22.2898 92.8355 21.821C92.5325 21.3523 92.3833 20.7604 92.3881 20.0455V9.47727ZM102.748 23.206C102.052 23.206 101.432 23.0852 100.887 22.8438C100.343 22.5975 99.9117 22.2353 99.5945 21.7571C99.282 21.2741 99.1257 20.6728 99.1257 19.9531C99.1257 19.3471 99.237 18.8381 99.4595 18.4261C99.6821 18.0142 99.9851 17.6828 100.369 17.4318C100.752 17.1809 101.188 16.9915 101.675 16.8636C102.168 16.7358 102.684 16.6458 103.224 16.5938C103.858 16.5275 104.37 16.4659 104.758 16.4091C105.146 16.3475 105.428 16.2576 105.603 16.1392C105.778 16.0208 105.866 15.8456 105.866 15.6136V15.571C105.866 15.1212 105.724 14.7732 105.44 14.527C105.16 14.2808 104.763 14.1577 104.246 14.1577C103.702 14.1577 103.269 14.2784 102.947 14.5199C102.625 14.7566 102.412 15.0549 102.308 15.4148L99.5092 15.1875C99.6513 14.5246 99.9306 13.9517 100.347 13.4688C100.764 12.9811 101.301 12.607 101.96 12.3466C102.622 12.0814 103.389 11.9489 104.261 11.9489C104.867 11.9489 105.447 12.0199 106.001 12.1619C106.559 12.304 107.054 12.5241 107.485 12.8224C107.921 13.1207 108.264 13.5043 108.515 13.973C108.766 14.437 108.891 14.9934 108.891 15.642V23H106.022V21.4872H105.937C105.762 21.8281 105.527 22.1288 105.234 22.3892C104.94 22.6449 104.587 22.8461 104.175 22.9929C103.763 23.1349 103.288 23.206 102.748 23.206ZM103.614 21.1179C104.059 21.1179 104.452 21.0303 104.793 20.8551C105.134 20.6752 105.402 20.4337 105.596 20.1307C105.79 19.8277 105.887 19.4844 105.887 19.1009V17.9432C105.792 18.0047 105.662 18.0616 105.496 18.1136C105.335 18.161 105.153 18.206 104.95 18.2486C104.746 18.2865 104.542 18.322 104.339 18.3551C104.135 18.3835 103.951 18.4096 103.785 18.4332C103.43 18.4853 103.12 18.5682 102.854 18.6818C102.589 18.7955 102.383 18.9493 102.237 19.1435C102.09 19.3329 102.016 19.5696 102.016 19.8537C102.016 20.2656 102.165 20.5805 102.464 20.7983C102.767 21.0114 103.15 21.1179 103.614 21.1179ZM114.003 23H110.707L115.728 8.45455H119.691L124.706 23H121.41L117.767 11.7784H117.653L114.003 23ZM113.797 17.2827H121.581V19.6832H113.797V17.2827ZM129.732 8.45455V23H126.656V8.45455H129.732Z" fill="#202020"/>
<defs>
<linearGradient id="paint0_linear_8007_2812" x1="16" y1="0" x2="16" y2="32" gradientUnits="userSpaceOnUse">
<stop stop-color="white" stop-opacity="0.12"/>
<stop offset="1" stop-color="white" stop-opacity="0"/>
</linearGradient>
<linearGradient id="paint1_linear_8007_2812" x1="19.2" y1="12.8003" x2="19.2" y2="22.3997" gradientUnits="userSpaceOnUse">
<stop stop-color="white"/>
<stop offset="1" stop-color="white" stop-opacity="0.8"/>
</linearGradient>
<linearGradient id="paint2_linear_8007_2812" x1="13.2" y1="9.60028" x2="13.2" y2="19.1997" gradientUnits="userSpaceOnUse">
<stop stop-color="white"/>
<stop offset="1" stop-color="white" stop-opacity="0.8"/>
</linearGradient>
</defs>
</svg>
